<svg height="480pt" viewBox="0 0 480 480" width="480pt" xmlns="http://www.w3.org/2000/svg"><path d="m283.109375 236.152344c4.417969 0 8-3.582032 8-8-.011719-40.953125-33.207031-74.148438-74.160156-74.160156-4.417969 0-8 3.582031-8 8 0 4.417968 3.582031 8 8 8 32.140625-.007813 58.199219 26.050781 58.191406 58.191406.019531 4.394531 3.574219 7.949218 7.96875 7.96875zm0 0"/><path d="m208.933594 180.894531c-4.417969 0-8 3.582031-8 8s3.582031 8 8 8c10.414062-.011719 20.410156 4.117188 27.773437 11.484375 7.367188 7.363282 11.496094 17.355469 11.480469 27.773438 0 4.417968 3.582031 8 8 8 4.421875 0 8-3.582032 8-8 .011719-30.519532-24.734375-55.265625-55.253906-55.257813zm0 0"/><path d="m423.988281 80h-24v-24c0-8.835938-7.164062-16-16-16h-32c-8.835937 0-16 7.164062-16 16v24h-24c-8.835937 0-16 7.164062-16 16v32c0 8.835938 7.164063 16 16 16h24v24c0 8.835938 7.164063 16 16 16h32c8.835938 0 16-7.164062 16-16v-24h24c8.835938 0 16-7.164062 16-16v-32c0-8.835938-7.164062-16-16-16zm0 48h-24c-8.835937 0-16 7.164062-16 16v24h-32v-24c0-8.835938-7.164062-16-16-16h-24v-32h24c8.835938 0 16-7.164062 16-16v-24h32v24c0 8.835938 7.164063 16 16 16h24zm0 0"/><path d="m367.988281 0c-61.855469 0-112 50.144531-112 112s50.144531 112 112 112 112-50.144531 112-112c-.066406-61.828125-50.171875-111.9335938-112-112zm0 208c-53.019531 0-96-42.980469-96-96s42.980469-96 96-96 96 42.980469 96 96c-.054687 52.996094-43.003906 95.941406-96 96zm0 0"/><path d="m200.933594 224h.128906c5.121094.851562 9.992188 2.820312 14.261719 5.769531 3.835937 3.777344 5.980469 8.949219 5.945312 14.335938 0 4.414062 7.953125 11.894531 7.953125 11.894531h.886719c4.761719 0 8.628906-3.847656 8.65625-8.609375.046875-21.699219-17.5-39.332031-39.199219-39.390625h1.335938c-4.417969 0-8 3.582031-8 8s3.582031 8 8 8zm0 0"/><path d="m349.179688 367.679688c-11.640626 9.910156-24.554688 18.226562-38.398438 24.71875-9.234375 4.296874-18.851562 7.726562-28.71875 10.242187-2.058594.515625-3.824219 1.84375-4.890625 3.679687-1.078125 1.832032-1.390625 4.015626-.871094 6.078126.898438 3.546874 4.101563 6.023437 7.761719 6 .671875 0 1.34375-.078126 2-.238282 10.800781-2.785156 21.324219-6.566406 31.429688-11.289062 15.191406-7.0625 29.351562-16.15625 42.089843-27.039063 3.324219-2.890625 3.714844-7.910156.878907-11.28125-2.953126-3.195312-7.871094-3.574219-11.28125-.871093zm0 0"/><path d="m415.589844 224c-2.121094.085938-4.117188 1.039062-5.511719 2.640625-1.429687 1.503906-2.183594 3.527344-2.089844 5.597656v.082031c.089844 2.480469.167969 5.039063.167969 7.679688.011719 12.734375-1.441406 25.429688-4.328125 37.832031-2.234375 9.9375-5.425781 19.640625-9.519531 28.96875-.824219 1.933594-.851563 4.117188-.078125 6.070313.785156 1.988281 2.304687 3.59375 4.246093 4.488281 1.019532.414063 2.101563.632813 3.199219.640625 3.1875-.007812 6.070313-1.886719 7.363281-4.800781 4.421876-10.246094 7.902344-20.875 10.398438-31.75 3.121094-13.59375 4.707031-27.496094 4.71875-41.441407 0-2.640624-.078125-5.359374-.167969-8.398437-.300781-4.382813-4.011719-7.738281-8.398437-7.609375zm0 0"/><path d="m164.734375 88.742188c1.171875.007812 2.335937-.246094 3.398437-.742188h.082032c14.394531-6.625 29.625-11.257812 45.269531-13.769531 10.425781-1.628907 20.96875-2.375 31.519531-2.230469h.160156c4.476563-.011719 8.144532-3.566406 8.289063-8.039062.070313-2.207032-.734375-4.355469-2.230469-5.976563-1.53125-1.5625-3.621094-2.457031-5.808594-2.488281-11.574218-.304688-23.148437.472656-34.578124 2.328125-17.136719 2.765625-33.820313 7.835937-49.597657 15.078125-1.972656.992187-3.507812 2.675781-4.3125 4.730468-.75 2.050782-.660156 4.316407.246094 6.304688 1.390625 2.917969 4.328125 4.785156 7.5625 4.804688zm0 0"/><path d="m66.710938 207.832031c.605468.097657 1.214843.15625 1.832031.167969 3.714843.027344 6.949219-2.539062 7.765625-6.167969 3.460937-14.90625 8.980468-29.257812 16.402344-42.640625 4.863281-8.945312 10.570312-17.40625 17.039062-25.269531 2.804688-3.425781 2.304688-8.476563-1.121094-11.28125-3.421875-2.804687-8.472656-2.304687-11.28125 1.121094-7.0625 8.640625-13.328125 17.90625-18.71875 27.679687-.085937.160156-.160156.320313-.238281.480469-7.957031 14.53125-13.878906 30.089844-17.601563 46.238281-.53125 2.070313-.183593 4.273438.960938 6.078125 1.117188 1.804688 2.898438 3.09375 4.960938 3.59375zm0 0"/><path d="m230.683594 361.464844-67.863282-67.863282 3.199219-3.203124c13.625 9.589843 32.257813 7.515624 43.441407-4.828126 11.183593-12.347656 11.410156-31.09375.527343-43.707031-10.886719-12.609375-29.464843-15.128906-43.3125-5.871093-13.847656 9.253906-18.625 27.382812-11.132812 42.265624l-4 4-67.898438-67.859374c-3.171875-3-8.136719-3-11.3125 0-27.230469 27.277343-38.539062 66.628906-29.941406 104.203124-17.039063 15.296876-22.933594 39.488282-14.847656 60.910157l-27.203125 90.175781c-.730469 2.421875-.2734378 5.046875 1.234375 7.078125 1.507812 2.03125 3.886719 3.230469 6.414062 3.234375h130.722657c2.433593 0 4.734374-1.109375 6.25-3.011719 1.519531-1.902343 2.089843-4.390625 1.546874-6.765625l-15.132812-66.589844c36.164062 6.820313 73.359375-4.726562 99.300781-30.832031 1.503907-1.5 2.347657-3.539062 2.347657-5.660156 0-2.125-.84375-4.160156-2.347657-5.660156zm-46.695313-113.464844c8.835938 0 16 7.164062 16 16s-7.164062 16-16 16c-8.835937 0-16-7.164062-16-16s7.164063-16 16-16zm-104 72c22.09375 0 40 17.910156 40 40s-17.90625 40-40 40c-22.089843 0-40-17.910156-40-40 .027344-22.082031 17.921875-39.972656 40-40zm-61.222656 144 20-66.230469c19.839844 21.808594 53.230469 24.394531 76.191406 5.902344l13.726563 60.328125zm110.398437-77.296875c11.503907-21.136719 8.195313-47.261719-8.214843-64.863281-16.40625-17.601563-42.238281-22.730469-64.128907-12.734375-4.519531-27.695313 3.285157-55.980469 21.367188-77.433594l135.289062 135.199219c-23.320312 19.675781-54.628906 27.042968-84.277343 19.832031zm0 0"/><path d="m143.988281 96c0 4.417969-3.582031 8-8 8s-8-3.582031-8-8 3.582031-8 8-8 8 3.582031 8 8zm0 0"/><path d="m255.988281 416c0 4.417969-3.582031 8-8 8s-8-3.582031-8-8 3.582031-8 8-8 8 3.582031 8 8zm0 0"/><path d="m391.988281 344c0 4.417969-3.582031 8-8 8s-8-3.582031-8-8 3.582031-8 8-8 8 3.582031 8 8zm0 0"/></svg>