<svg height="472pt" viewBox="-2 0 472 472.00001" width="472pt" xmlns="http://www.w3.org/2000/svg"><path d="m245.292969 326.960938c4.351562-.773438 7.253906-4.929688 6.480469-9.28125-.84375-4.308594-4.945313-7.171876-9.28125-6.480469-2.929688.546875-5.902344.816406-8.878907.800781-14.257812-.398438-27.902343-5.871094-38.480469-15.441406-7.550781-6.398438-14.03125-13.957032-19.199218-22.398438-2.496094-3.605468-7.363282-4.65625-11.121094-2.398437-3.707031 2.386719-4.78125 7.324219-2.402344 11.039062 6.007813 9.542969 13.363282 18.167969 21.84375 25.597657.15625.160156.316406.242187.476563.402343 13.484375 12.023438 30.820312 18.832031 48.882812 19.199219 3.914063.015625 7.824219-.332031 11.679688-1.039062zm0 0"/><path d="m465.851562 459.519531c-40.648437-60.375-103.246093-102.507812-174.480468-117.441406 12.902344-8.726563 24.214844-19.605469 33.441406-32.15625 13.640625-18.546875 23.65625-39.5 29.519531-61.761719.003907-.066406.003907-.132812 0-.199218 3.582031-13.394532 5.84375-27.105469 6.753907-40.9375 14.277343-3.375 24.402343-16.066407 24.527343-30.738282.125-14.667968-9.78125-27.53125-24-31.148437v-17.320313c13.007813-.410156 23.488281-10.808594 24-23.816406v-51.199219c.050781-11.265625-7.785156-21.035156-18.792969-23.425781l-131.472656-29.183594c-1.144531-.253906-2.328125-.253906-3.472656 0l-131.472656 29.214844c-10.996094 2.390625-18.828125 12.140625-18.789063 23.394531v51.199219c.507813 13.007812 10.988281 23.40625 24 23.816406v17.320313c-14.21875 3.617187-24.128906 16.476562-24.007812 31.148437.125 14.671875 10.25 27.359375 24.527343 30.738282.90625 13.832031 3.167969 27.542968 6.75 40.9375-.003906.066406-.003906.132812 0 .199218 9.039063 37.886719 31.488282 71.222656 63.203126 93.839844-71.320313 14.925781-134.003907 57.089844-174.714844 117.519531-1.65625 2.453125-1.824219 5.625-.433594 8.238281 1.390625 2.613282 4.113281 4.246094 7.074219 4.242188h451.199219c2.960937.003906 5.683593-1.628906 7.074218-4.242188 1.394532-2.613281 1.226563-5.785156-.433594-8.238281zm-344.238281-267.519531v-64h224v64c-.007812 14.867188-1.660156 29.6875-4.9375 44.191406l-104.984375-27.953125c-1.367187-.316406-2.792968-.316406-4.160156 0l-104.984375 27.953125c-3.273437-14.503906-4.929687-29.324218-4.933594-44.191406zm248-16c-.003906 5.714844-3.054687 10.992188-8 13.847656v-27.695312c4.945313 2.855468 7.996094 8.132812 8 13.847656zm-272-72v-51.199219c-.019531-3.757812 2.59375-7.011719 6.261719-7.808593l129.738281-28.800782 129.734375 28.800782c3.671875.796874 6.28125 4.050781 6.265625 7.808593v51.199219c-.617187 4.933594-5.050781 8.480469-10 8h-252c-4.949219.480469-9.382812-3.066406-10-8zm0 72c0-5.714844 3.050781-10.992188 8-13.847656v27.695312c-4.949219-2.855468-8-8.132812-8-13.847656zm33.039063 75.679688 102.960937-27.441407 102.957031 27.441407c-5.40625 17.472656-13.710937 33.914062-24.558593 48.640624-11.871094 16.585938-28.09375 29.570313-46.878907 37.519532-20.128906 8.214844-42.671874 8.214844-62.800781 0h-.078125c-31.683594-12.640625-58.320312-44-71.601562-86.160156zm-107.039063 204.320312c42.828125-56.234375 106.4375-92.921875 176.558594-101.839844 21.667969 7.785156 45.371094 7.785156 67.039063 0 70.058593 8.972656 133.597656 45.65625 176.402343 101.839844zm0 0"/><path d="m209.613281 256c0 4.417969-3.582031 8-8 8s-8-3.582031-8-8 3.582031-8 8-8 8 3.582031 8 8zm0 0"/><path d="m281.613281 304c0 4.417969-3.582031 8-8 8s-8-3.582031-8-8 3.582031-8 8-8 8 3.582031 8 8zm0 0"/><path d="m289.613281 272c-.746093 0-1.488281-.105469-2.203125-.3125l-56-16c-2.820312-.71875-5.03125-2.917969-5.765625-5.738281-.734375-2.820313.125-5.8125 2.238281-7.820313 2.113282-2.003906 5.152344-2.699218 7.929688-1.816406l56 16c3.828125 1.101562 6.261719 4.851562 5.710938 8.796875-.554688 3.949219-3.925782 6.882813-7.910157 6.890625zm0 0"/><path d="m192.285156 379.457031c-43.445312 7.335938-84.148437 26.113281-117.929687 54.398438-3.386719 2.835937-3.835938 7.882812-1 11.273437 2.835937 3.386719 7.882812 3.835938 11.273437 1 31.589844-26.476562 69.667969-44.058594 110.3125-50.929687 2.855469-.433594 5.253906-2.375 6.277344-5.074219 1.023438-2.703125.507812-5.742188-1.339844-7.960938-1.851562-2.21875-4.753906-3.265624-7.59375-2.738281zm0 0"/><path d="m217.613281 72h8v8c0 4.417969 3.582031 8 8 8s8-3.582031 8-8v-8h8c4.417969 0 8-3.582031 8-8s-3.582031-8-8-8h-8v-8c0-4.417969-3.582031-8-8-8s-8 3.582031-8 8v8h-8c-4.417969 0-8 3.582031-8 8s3.582031 8 8 8zm0 0"/><path d="m249.613281 416h-8v-8c0-4.417969-3.582031-8-8-8s-8 3.582031-8 8v8h-8c-4.417969 0-8 3.582031-8 8s3.582031 8 8 8h8v8c0 4.417969 3.582031 8 8 8s8-3.582031 8-8v-8h8c4.417969 0 8-3.582031 8-8s-3.582031-8-8-8zm0 0"/><path d="m249.613281 376h-32c-4.417969 0-8 3.582031-8 8s3.582031 8 8 8h32c4.417969 0 8-3.582031 8-8s-3.582031-8-8-8zm0 0"/></svg>