<svg height="495pt" viewBox="0 -8 495.99112 495" width="495pt" xmlns="http://www.w3.org/2000/svg"><path d="m295.980469 240.488281c0-26.507812-21.488281-48-48-48-26.507813 0-48 21.492188-48 48 0 26.511719 21.492187 48 48 48 26.5-.027343 47.972656-21.5 48-48zm-48 32c-17.671875 0-32-14.328125-32-32s14.328125-32 32-32 32 14.328125 32 32-14.328125 32-32 32zm0 0"/><path d="m179.5 159.128906c8.132812 6.015625 17.964844 9.292969 28.082031 9.359375 4.417969.023438 8.015625-3.542969 8.039063-7.960937.023437-4.417969-3.542969-8.015625-7.960938-8.039063-17.539062-.195312-31.660156-14.460937-31.679687-32v-.160156c.015625-4.4375-3.5625-8.046875-8-8.078125-4.417969 0-8 3.582031-8 8v.238281c.042969 15.238281 7.28125 29.5625 19.519531 38.640625zm0 0"/><path d="m208.0625 88.488281c6.628906-.015625 13.09375 2.058594 18.480469 5.921875l.238281.238282c8.328125 5.964843 13.25 15.597656 13.199219 25.839843v.402344c-.042969 4.417969 3.503906 8.035156 7.921875 8.078125h.078125c4.375-.03125 7.925781-3.546875 8-7.921875v-.558594c-.027344-15.324219-7.332031-29.722656-19.679688-38.800781-8.167969-5.980469-18.035156-9.203125-28.160156-9.199219-4.417969 0-8 3.582031-8 8-.019531 2.113281.804687 4.148438 2.292969 5.652344 1.488281 1.503906 3.511718 2.347656 5.628906 2.347656zm0 0"/><path d="m316.300781 321.6875c-8.195312-5.992188-18.085937-9.21875-28.238281-9.199219-4.417969 0-8 3.582031-8 8s3.582031 8 8 8c17.640625.042969 31.917969 14.359375 31.917969 32v.402344c-.042969 4.417969 3.503906 8.035156 7.921875 8.078125h.078125c4.375-.03125 7.925781-3.546875 8-7.921875v-.558594c-.027344-15.324219-7.332031-29.722656-19.679688-38.800781zm0 0"/><path d="m287.660156 392.488281c-17.539062-.195312-31.660156-14.460937-31.679687-32v-.160156c.015625-4.4375-3.5625-8.046875-8-8.078125-4.386719 0-7.957031 3.53125-8 7.917969v.320312c0 26.386719 21.296875 47.824219 47.679687 48 4.417969 0 8-3.582031 8-8s-3.582031-8-8-8zm0 0"/><path d="m303.980469 104.488281c-17.671875 0-32 14.328125-32 32s14.328125 32 32 32 32-14.328125 32-32-14.328125-32-32-32zm0 48c-8.835938 0-16-7.164062-16-16 0-8.835937 7.164062-16 16-16 8.835937 0 16 7.164063 16 16 0 8.835938-7.164063 16-16 16zm0 0"/><path d="m191.980469 312.488281c-17.671875 0-32 14.328125-32 32s14.328125 32 32 32 32-14.328125 32-32-14.328125-32-32-32zm0 48c-8.835938 0-16-7.164062-16-16 0-8.835937 7.164062-16 16-16 8.835937 0 16 7.164063 16 16 0 8.835938-7.164063 16-16 16zm0 0"/><path d="m487.582031 428.007812c-8.140625.496094-16.304687.253907-24.402343-.71875-14.484376-1.246093-28.242188-6.886718-39.4375-16.160156-3.386719-2.734375-8.3125-2.386718-11.28125.800782-1.40625 1.609374-2.125 3.707031-2 5.839843.15625 2.101563 1.132812 4.054688 2.71875 5.4375 13.636718 11.324219 30.359374 18.289063 48 20 6 .722657 12.039062 1.066407 18.082031 1.042969 2.878906 0 5.917969-.082031 9.121093-.242188 4.417969-.21875 7.820313-3.980468 7.597657-8.398437-.21875-4.417969-3.980469-7.820313-8.398438-7.601563zm0 0"/><path d="m397.421875 343.847656c-.320313-2.71875-.5625-5.4375-.878906-8.078125-.882813-8.722656-1.761719-16.960937-3.28125-24.402343-1.019531-11.402344-7.773438-21.5-17.921875-26.796876-2.835938-1.070312-5.847656-1.613281-8.878906-1.601562-2.183594.035156-4.355469.304688-6.480469.800781v-62.5625c.375.355469.710937.648438 1.136719 1.058594 5.066406 5.882813 12.449218 9.261719 20.210937 9.261719 7.765625 0 15.144531-3.378906 20.214844-9.261719 3.476562-3.335937 5.183593-4.800781 9.132812-4.800781 3.953125 0 5.554688 1.382812 9.113281 4.800781 5.085938 5.84375 12.441407 9.21875 20.191407 9.261719 4.417969 0 8-3.582032 8-8 0-4.417969-3.582031-8-8-8-3.941407 0-5.597657-1.46875-9.113281-4.796875-5.058594-5.886719-12.4375-9.269531-20.199219-9.269531s-15.136719 3.382812-20.199219 9.269531c-3.480469 3.335937-5.183594 4.796875-9.144531 4.796875-3.960938 0-5.65625-1.480469-9.128907-4.796875-3.371093-3.605469-7.5625-6.351563-12.214843-8v-29.523438c.375.355469.710937.648438 1.136719 1.058594 5.066406 5.882813 12.449218 9.261719 20.210937 9.261719 7.765625 0 15.144531-3.378906 20.214844-9.261719 3.476562-3.335937 5.183593-4.800781 9.132812-4.800781 3.953125 0 5.554688 1.382812 9.113281 4.800781 5.085938 5.84375 12.441407 9.21875 20.191407 9.261719 4.417969 0 8-3.582032 8-8 0-4.417969-3.582031-8-8-8-3.941407 0-5.597657-1.46875-9.113281-4.796875-5.058594-5.886719-12.4375-9.269531-20.199219-9.269531s-15.136719 3.382812-20.199219 9.269531c-3.480469 3.335937-5.183594 4.796875-9.144531 4.796875-3.960938 0-5.65625-1.480469-9.128907-4.796875-3.371093-3.605469-7.5625-6.351563-12.214843-8v-29.523438c.375.355469.710937.648438 1.136719 1.058594 5.066406 5.882813 12.449218 9.261719 20.210937 9.261719 7.765625 0 15.144531-3.378906 20.214844-9.261719 3.476562-3.335937 5.183593-4.800781 9.132812-4.800781 3.953125 0 5.554688 1.382812 9.113281 4.800781 5.085938 5.84375 12.441407 9.21875 20.191407 9.261719 4.417969 0 8-3.582032 8-8 0-4.417969-3.582031-8-8-8-3.941407 0-5.597657-1.46875-9.113281-4.796875-5.058594-5.886719-12.4375-9.269531-20.199219-9.269531s-15.136719 3.382812-20.199219 9.269531c-3.480469 3.335937-5.183594 4.796875-9.144531 4.796875-3.960938 0-5.65625-1.480469-9.128907-4.796875-3.433593-3.703125-7.734374-6.5-12.511718-8.136719-3.160156-60.613281-54.050782-107.660156-114.722656-106.058594-60.671876 1.597656-109.015626 51.261719-108.980469 111.953125v68.074219c-2.058594.855469-4.25 1.34375-6.480469 1.445312-1.039062.039063-2.078125-.152343-3.039062-.558593-.542969-.15625-1.054688-.402344-1.519532-.71875-.226562-.21875-.5-.382813-.800781-.480469-4.078125-3.28125-7.28125-16.960938-9.039063-38.722656-.464843-4.394532-4.402343-7.582032-8.800781-7.117188-4.394531.460938-7.582031 4.402344-7.121093 8.796875.402343 3.042969.722656 6.082031 1.042968 8.960938 1.839844 16.722656 3.359375 31.199219 14.476563 40.722656.3125.332031.660156.628906 1.042969.878906 1.527343 1.050781 3.164062 1.9375 4.878906 2.640625 2.835937 1.074219 5.847656 1.617188 8.878906 1.597656 2.183594-.03125 4.355469-.300781 6.480469-.800781v62.5625c-.375-.351562-.710938-.648437-1.136719-1.058593-5.066406-5.878907-12.445312-9.261719-20.210938-9.261719-7.765624 0-15.144531 3.382812-20.210937 9.261719-3.480469 3.335937-5.183594 4.800781-9.136719 4.800781s-5.550781-1.382813-9.113281-4.800781c-5.085937-5.84375-12.441406-9.21875-20.191406-9.261719-4.417969 0-8 3.582031-8 8s3.582031 8 8 8c3.945312 0 5.640625 1.472656 9.113281 4.800781 5.0625 5.882812 12.4375 9.265625 20.199219 9.265625s15.136719-3.382813 20.199219-9.265625c3.480468-3.335938 5.183593-4.800781 9.144531-4.800781 3.960937 0 5.65625 1.480469 9.128906 4.800781 3.375 3.601562 7.5625 6.347656 12.214844 8v29.519531c-.375-.351562-.710938-.648437-1.136719-1.058593-5.066406-5.878907-12.445312-9.261719-20.210938-9.261719-7.765624 0-15.144531 3.382812-20.210937 9.261719-3.480469 3.335937-5.183594 4.800781-9.136719 4.800781s-5.550781-1.382813-9.113281-4.800781c-5.085937-5.84375-12.441406-9.21875-20.191406-9.261719-4.417969 0-8 3.582031-8 8s3.582031 8 8 8c3.945312 0 5.640625 1.472656 9.113281 4.800781 5.0625 5.882812 12.4375 9.265625 20.199219 9.265625s15.136719-3.382813 20.199219-9.265625c3.480468-3.335938 5.183593-4.800781 9.144531-4.800781 3.960937 0 5.65625 1.480469 9.128906 4.800781 3.375 3.601562 7.5625 6.347656 12.214844 8v29.519531c-.375-.351562-.710938-.648437-1.136719-1.058593-5.066406-5.878907-12.445312-9.261719-20.210938-9.261719-7.765624 0-15.144531 3.382812-20.210937 9.261719-3.480469 3.335937-5.183594 4.800781-9.136719 4.800781s-5.550781-1.382813-9.113281-4.800781c-5.085937-5.84375-12.441406-9.21875-20.191406-9.261719-4.417969 0-8 3.582031-8 8s3.582031 8 8 8c3.945312 0 5.640625 1.472656 9.113281 4.800781 5.0625 5.882812 12.4375 9.265625 20.199219 9.265625s15.136719-3.382813 20.199219-9.265625c3.480468-3.335938 5.183593-4.800781 9.144531-4.800781 3.960937 0 5.65625 1.480469 9.128906 4.800781 3.4375 3.699219 7.734375 6.496094 12.511719 8.132812 3.160156 60.613282 54.054687 107.660157 114.726562 106.058594 60.671875-1.597656 109.011719-51.261718 108.976563-111.953125v-68.0625c2.058593-.863281 4.25-1.355469 6.480469-1.457031 1.042968-.023438 2.074218.167969 3.039062.558594 3.519531 1.121094 6.242188 6.242187 8.082031 15.121094 1.429688 7.675781 2.472657 15.417968 3.117188 23.199218.242187 2.5625.5625 5.121094.800781 7.761719.472656 4.058594 3.914062 7.121094 8 7.121094h.882812c4.363282-.5625 7.488282-4.503907 7.039063-8.882813zm-149.441406 120.640625c-52.996094-.058593-95.941407-43.003906-96-96v-256c0-53.019531 42.980469-96 96-96s96 42.980469 96 96v180.160157c-.148438.257812-.28125.527343-.398438.800781-.433593 1.695312-.292969 3.488281.398438 5.09375v69.945312c-.058594 52.996094-43.003907 95.941407-96 96zm0 0"/><path d="m52.542969 58.328125h.078125c7.484375 2.6875 14.382812 6.789063 20.320312 12.082031 1.039063 1.039063 2.160156 2.078125 3.199219 3.117188 1.5 1.582031 3.582031 2.480468 5.761719 2.480468 2.042968-.007812 4.011718-.78125 5.519531-2.160156 1.5625-1.441406 2.460937-3.46875 2.480469-5.597656.066406-2.128906-.710938-4.199219-2.160156-5.761719-1.359376-1.359375-2.722657-2.640625-4.082032-3.917969-7.476562-6.683593-16.167968-11.871093-25.597656-15.28125-16.234375-5.476562-33.402344-7.625-50.480469-6.320312-2.125.082031-4.121093 1.039062-5.519531 2.640625-2.1171875 2.34375-2.65625 5.714844-1.375 8.601563 1.277344 2.886718 4.136719 4.75 7.292969 4.757812.160156 0 .242187-.078125.480469-.078125 2.640624-.082031 5.441406-.160156 8.238281-.160156h.160156c11.960937-.21875 23.867187 1.621093 35.203125 5.4375.160156.082031.320312.082031.480469.160156zm0 0"/><path d="m111.980469 112.488281c0 4.417969-3.582031 8-8 8s-8-3.582031-8-8 3.582031-8 8-8 8 3.582031 8 8zm0 0"/><path d="m183.980469 96.488281c0 4.417969-3.582031 8-8 8s-8-3.582031-8-8 3.582031-8 8-8 8 3.582031 8 8zm0 0"/><path d="m247.980469 144.488281c0 4.417969-3.582031 8-8 8s-8-3.582031-8-8 3.582031-8 8-8 8 3.582031 8 8zm0 0"/><path d="m263.980469 336.488281c0 4.417969-3.582031 8-8 8s-8-3.582031-8-8 3.582031-8 8-8 8 3.582031 8 8zm0 0"/><path d="m327.980469 384.488281c0 4.417969-3.582031 8-8 8s-8-3.582031-8-8 3.582031-8 8-8 8 3.582031 8 8zm0 0"/><path d="m407.980469 392.488281c0 4.417969-3.582031 8-8 8s-8-3.582031-8-8 3.582031-8 8-8 8 3.582031 8 8zm0 0"/></svg>