<svg height="480pt" viewBox="0 0 480 480.00633" width="480pt" xmlns="http://www.w3.org/2000/svg"><path d="m270.875 385.132812c5.863281-7.0625 9.089844-15.945312 9.128906-25.125 0-22.09375-17.910156-40-40-40-22.09375 0-40 17.90625-40 40 .039063 9.179688 3.265625 18.0625 9.128906 25.125-10.132812 3.011719-17.089843 12.304688-17.128906 22.875v64c0 4.417969 3.582032 8 8 8 4.417969 0 8-3.582031 8-8v-64c0-4.417968 3.582032-8 8-8h48c4.417969 0 8 3.582032 8 8v64c0 4.417969 3.582032 8 8 8 4.417969 0 8-3.582031 8-8v-64c-.039062-10.570312-7-19.863281-17.128906-22.875zm-30.871094-49.125c13.253906 0 24 10.742188 24 24 0 13.253907-10.746094 24-24 24s-24-10.746093-24-24c0-13.257812 10.746094-24 24-24zm0 0"/><path d="m447.882812 282.445312c19.539063-9.210937 32.039063-28.839843 32.121094-50.4375v-16c-.027344-22.082031-17.921875-39.976562-40-40h-120c-8.835937 0-16 7.160157-16 16v40c.082032 21.597657 12.582032 41.226563 32.121094 50.4375.597656 14.199219 6.59375 27.632813 16.757812 37.5625h-8.878906c-22.082031.023438-39.972656 17.917969-40 40v112c0 4.417969 3.582032 8 8 8 4.417969 0 8-3.582031 8-8v-64h16v64c0 4.417969 3.582032 8 8 8 4.417969 0 8-3.582031 8-8v-72c0-4.417968-3.582031-8-8-8h-24v-32c0-13.257812 10.746094-24 24-24h16c0 17.671876 14.324219 32 32 32 17.671875 0 32-14.328124 32-32h16c13.253906 0 24 10.742188 24 24v32h-24c-4.417968 0-8 3.582032-8 8v72c0 4.417969 3.582032 8 8 8 4.417969 0 8-3.582031 8-8v-64h16v64c0 4.417969 3.582032 8 8 8 4.417969 0 8-3.582031 8-8v-112c-.027344-22.082031-17.921875-39.976562-40-40h-8.890625c10.171875-9.929687 16.167969-23.363281 16.769531-37.5625zm-95.878906-2.4375v-40h40c4.417969 0 8-3.582031 8-8 0-4.417968-3.582031-8-8-8h-48c-4.417968 0-8 3.582032-8 8v31.949219c-10.058594-7.542969-15.984375-19.378906-16-31.949219v-40h120c13.253906 0 24 10.742188 24 24v16c-.015625 12.570313-5.941406 24.40625-16 31.949219v-31.949219c0-4.417968-3.582031-8-8-8h-16c-4.417968 0-8 3.582032-8 8 0 4.417969 3.582032 8 8 8h8v40c0 22.089844-17.910156 40-40 40-22.09375 0-40-17.910156-40-40zm40 72c-8.835937 0-16-7.164062-16-16h32c0 8.835938-7.164062 16-16 16zm0 0"/><path d="m136.003906 320.007812h-8.890625c10.804688-10.507812 16.894531-24.933593 16.890625-40v-48c0-4.417968-3.582031-8-8-8h-16c-4.417968 0-8 3.582032-8 8 0 4.417969 3.582032 8 8 8h8v40c0 22.089844-17.910156 40-40 40-22.09375 0-40-17.910156-40-40v-40h40c4.417969 0 8-3.582031 8-8 0-4.417968-3.582031-8-8-8h-48c-4.417968 0-8 3.582032-8 8v48c-.003906 15.0625 6.082032 29.492188 16.878906 40h-8.878906c-22.082031.023438-39.972656 17.917969-39.99999975 40v112c0 4.417969 3.58203175 8 7.99999975 8 4.417969 0 8-3.582031 8-8v-64h16v64c0 4.417969 3.582032 8 8 8 4.417969 0 8-3.582031 8-8v-72c0-4.417968-3.582031-8-8-8h-24v-32c0-13.257812 10.746094-24 24-24h16v16c-.003906 2.121094.839844 4.160157 2.34375 5.664063l21.65625 21.65625v36.679687c0 4.417969 3.582032 8 8 8 4.417969 0 8-3.582031 8-8v-36.679687l21.65625-21.65625c1.5-1.503906 2.34375-3.542969 2.34375-5.664063v-16h16c13.253906 0 24 10.742188 24 24v32h-24c-4.417968 0-8 3.582032-8 8v72c0 4.417969 3.582032 8 8 8 4.417969 0 8-3.582031 8-8v-64h16v64c0 4.417969 3.582032 8 8 8 4.417969 0 8-3.582031 8-8v-112c-.027344-22.082031-17.921875-39.976562-40-40zm-32 28.6875-16 16-16-16v-12.6875h32zm0 0"/><path d="m88.003906 160.007812c-48.578125.054688-87.9453122 39.421876-87.99999975 88v56c0 4.417969 3.58203175 8 7.99999975 8 4.417969 0 8-3.582031 8-8v-56c0-39.765624 32.234375-72 72-72s72 32.234376 72 72v56c0 4.417969 3.582032 8 8 8 4.417969 0 8-3.582031 8-8v-56c-.058594-48.578124-39.421875-87.945312-88-88zm0 0"/><path d="m40.628906 141.375 7.375-3.425781v6.058593c0 4.417969 3.582032 8 8 8 4.417969 0 8-3.582031 8-8v-13.488281l165.773438-76.96875c6.484375-3.015625 13.96875-3.015625 20.449218 0l165.777344 76.96875v13.488281c0 4.417969 3.582032 8 8 8 4.417969 0 8-3.582031 8-8v-6.058593l7.375 3.425781c12.023438 5.582031 26.296875.359375 31.878906-11.664062 5.582032-12.023438.363282-26.296876-11.664062-31.878907l-202.628906-94.082031c-10.753906-5-23.167969-5-33.921875 0l-202.632813 94.082031c-12.023437 5.582031-17.246094 19.855469-11.664062 31.878907 5.582031 12.023437 19.855468 17.246093 31.882812 11.664062zm-17.601562-24.519531c.726562-1.996094 2.21875-3.617188 4.144531-4.511719l202.605469-94.074219c6.484375-3.015625 13.96875-3.015625 20.449218 0l202.632813 94.074219c4.007813 1.859375 5.75 6.621094 3.886719 10.628906-1.859375 4.011719-6.621094 5.753906-10.632813 3.890625l-189.148437-87.832031c-10.753906-5-23.167969-5-33.921875 0l-189.152344 87.832031c-1.925781.894531-4.128906.988281-6.121094.257813-1.996093-.726563-3.617187-2.21875-4.511719-4.148438-.902343-1.921875-.992187-4.125-.253906-6.117187zm0 0"/><path d="m280.003906 104.007812h-80c-4.417968 0-8 3.582032-8 8v64c0 4.417969 3.582032 8 8 8 4.417969 0 8-3.582031 8-8v-24h24v24c0 4.417969 3.582032 8 8 8 4.417969 0 8-3.582031 8-8v-24h24v24c0 4.417969 3.582032 8 8 8 4.417969 0 8-3.582031 8-8v-64c0-4.417968-3.582031-8-8-8zm-72 32v-16h24v16zm40 0v-16h24v16zm0 0"/></svg>